<svg width="1488" height="148" viewBox="0 0 1488 148" fill="none" xmlns="http://www.w3.org/2000/svg">
<g clip-path="url(#clip0_1094_5241)">
<path d="M0 0H1488V132C1488 140.837 1480.84 148 1472 148H16C7.16343 148 0 140.837 0 132V0Z" fill="#4C83C3"/>
<path d="M50.4247 98.5273C50.0202 98.4512 49.604 98.4653 49.2055 98.5684C48.8071 98.6715 48.4362 98.8612 48.1195 99.124C47.8027 99.3868 47.5477 99.7161 47.3727 100.089C47.1977 100.461 47.107 100.868 47.107 101.279C47.107 101.691 47.1977 102.097 47.3727 102.47C47.5477 102.842 47.8027 103.172 48.1195 103.435C48.4362 103.697 48.8071 103.887 49.2055 103.99C49.604 104.093 50.0202 104.107 50.4247 104.031C50.8293 104.107 51.2457 104.094 51.6442 103.99C52.0428 103.887 52.4137 103.698 52.7306 103.435C53.0475 103.172 53.3026 102.843 53.4776 102.47C53.6527 102.098 53.7435 101.691 53.7435 101.279C53.7435 100.868 53.6527 100.461 53.4776 100.088C53.3026 99.7158 53.0475 99.3864 52.7306 99.1236C52.4137 98.8608 52.0428 98.6711 51.6442 98.5681C51.2457 98.465 50.8293 98.4511 50.4247 98.5273ZM50.4247 102.972C49.1789 102.972 48.1663 102.212 48.1663 101.279C48.1663 100.347 49.1789 99.5846 50.4247 99.5846C51.6705 99.5846 52.6848 100.345 52.6848 101.279C52.6848 102.214 51.6705 102.972 50.4247 102.972Z" fill="white"/>
<path d="M45.9118 103.354C45.7938 102.695 45.4212 102.11 44.8746 101.725C44.3281 101.339 43.6518 101.185 42.9921 101.295C42.324 101.32 41.6927 101.607 41.235 102.095C40.7772 102.582 40.53 103.23 40.5468 103.898C40.608 104.215 40.7327 104.516 40.9134 104.783C41.0941 105.05 41.327 105.277 41.5981 105.452C41.8691 105.626 42.1728 105.744 42.4906 105.798C42.8084 105.852 43.1339 105.841 43.4473 105.765C45.0014 105.609 46.038 104.593 45.9118 103.354ZM43.3499 104.812C42.5305 104.895 41.6137 104.612 41.5307 103.799C41.5735 103.402 41.7517 103.031 42.0354 102.749C42.319 102.466 42.691 102.29 43.0889 102.25C43.4869 102.209 43.8867 102.307 44.2215 102.526C44.5563 102.744 44.8057 103.072 44.9279 103.453C45.011 104.269 44.1677 104.729 43.3499 104.812Z" fill="white"/>
<path d="M36.2549 103.358C34.7983 103.358 33.8942 104.043 33.8942 105.146C33.8942 106.248 34.7983 106.933 36.2549 106.933C37.7116 106.933 38.614 106.249 38.614 105.146C38.614 104.042 37.71 103.358 36.2549 103.358ZM36.2533 105.984C35.6001 105.984 34.819 105.84 34.819 105.146C34.819 104.454 35.6001 104.309 36.2533 104.309C36.9098 104.309 37.6908 104.454 37.6908 105.146C37.6908 105.84 36.9098 105.984 36.2533 105.984Z" fill="white"/>
<path d="M70.7471 83.3697C70.5861 82.3356 70.1844 81.3538 69.5743 80.5035C68.9642 79.6532 68.1629 78.9581 67.2348 78.4743C67.2045 78.4535 67.1789 78.4344 67.1502 78.4136L67.1374 78.404L67.0256 78.3321V79.9166C67.0767 79.9485 67.155 80.0028 67.2348 80.0603C67.8033 80.4266 68.291 80.9051 68.6681 81.4664C69.0452 82.0278 69.3037 82.6602 69.4278 83.325C69.4231 84.1459 69.2214 84.9536 68.8398 85.6803C68.4582 86.4071 67.9078 87.0317 67.2348 87.5017C67.2157 87.5209 67.1981 87.5384 67.1773 87.556L67.0256 87.6902L66.9202 87.7812L67.0256 87.8227L67.2348 87.9058L67.2364 87.9074C67.2604 87.917 69.5572 88.8865 68.4631 92.2837C67.8779 93.9039 66.7857 95.292 65.3487 96.2419C63.9117 97.1918 62.2065 97.6527 60.4866 97.5561H60.4323C57.2068 97.468 54.0625 96.5255 51.3203 94.8249L51.1781 94.7466L51.0647 94.8632C49.6316 96.3277 47.7205 97.2294 45.679 97.4044C45.6422 97.4124 43.133 97.596 41.5007 94.3026L41.4176 94.1365L41.2435 94.1972C41.2227 94.2036 39.338 94.8281 38.335 93.8841C38.2676 93.8208 38.2056 93.7519 38.1497 93.6781H37.8718V93.6749H36.9055V93.6781H36.6888L36.7031 93.7308L36.7303 93.8011C36.7399 93.8266 36.7495 93.8506 36.7638 93.8841C36.9747 94.3889 37.8723 95.9956 40.7457 95.6331C41.2529 96.5054 41.9691 97.2379 42.8298 97.7646C43.6905 98.2913 44.6687 98.5956 45.6762 98.6502H45.6778C47.7966 98.6134 49.8251 97.7863 51.3655 96.3311C54.0661 97.7578 57.0335 98.6084 60.0798 98.8291C60.416 98.8291 60.752 98.8105 61.0861 98.7732C62.8734 98.7285 64.6115 98.1787 66.0994 97.1875C67.5872 96.1962 68.7641 94.804 69.4938 93.1718C69.9227 92.2872 70.0892 91.2983 69.9737 90.3221C69.8583 89.3458 69.4656 88.4231 68.8421 87.663C69.44 87.1186 69.9182 86.4558 70.2462 85.7167C70.5743 84.9776 70.7445 84.1784 70.7471 83.3697Z" fill="white"/>
<path d="M29.8457 104.677C28.298 104.677 28 105.569 28 105.996C28 106.422 28.298 107.314 29.8457 107.314C31.0149 107.314 31.6914 106.854 31.6914 105.996C31.6914 105.138 31.0149 104.677 29.8457 104.677ZM29.8457 106.466C28.98 106.466 28.8481 106.18 28.8481 105.996C28.8481 105.812 28.98 105.526 29.8457 105.526C29.9543 105.526 30.9004 105.526 30.9004 105.996C30.9004 106.466 29.9543 106.466 29.8457 106.466Z" fill="white"/>
<path d="M66.9007 79.9577L66.7362 79.8667C64.537 77.8593 61.7313 76.6425 58.7629 76.4087C58.3345 76.4084 57.9069 76.4464 57.4852 76.5221C56.5884 76.6969 55.7351 77.0474 54.9744 77.5534C54.2137 78.0595 53.5607 78.711 53.0529 79.4706L52.577 80.2756L52.4364 79.3508C52.0674 76.9422 50.8568 76.7825 50.8328 76.7793C50.7456 76.7616 50.6567 76.7531 50.5677 76.7537C49.25 76.7537 47.5042 78.5043 47.4851 78.5234L47.0746 78.9387L46.926 78.3765C45.9981 74.9265 43.663 74.8547 43.5751 74.8531C41.9455 74.8513 40.3752 75.4645 39.178 76.57C38.7317 77.1364 38.5154 77.8503 38.5723 78.5691C38.6291 79.2879 38.9549 79.9589 39.4847 80.4481L39.8153 80.7947L39.3745 80.9863C34.9406 82.911 35.1946 84.5385 35.1994 84.5657C35.3527 85.7348 37.9322 86.9215 39.523 87.3927L39.9766 87.5301L39.6971 87.9118C37.1511 91.3793 37.913 93.0947 38.0951 93.4014L38.151 93.5515H61.5437C62.967 93.5471 64.3303 92.9782 65.3347 91.9697C66.339 90.9612 66.9022 89.5954 66.9007 88.1721V79.9577Z" fill="white"/>
<path d="M61.5445 62.6536H33.357C31.9357 62.6558 30.5734 63.2218 29.569 64.2275C28.5647 65.2331 28.0004 66.5962 28 68.0175V88.1886C28.0004 89.61 28.5647 90.9731 29.569 91.9789C30.5733 92.9848 31.9357 93.5511 33.357 93.5536H36.5003L36.478 93.5009C36.2893 92.6173 36.2828 91.7045 36.4588 90.8183C36.6349 89.9321 36.9897 89.0911 37.5018 88.3467C35.0133 87.3165 33.7212 86.0851 33.6605 84.6891C33.5679 82.5329 36.4237 80.776 37.4682 80.2074C37.1936 79.6841 37.031 79.1093 36.9908 78.5197C36.9507 77.9301 37.0339 77.3386 37.235 76.7829C37.8292 75.5314 38.889 74.5615 40.1883 74.0805C41.1287 73.6208 42.1573 73.3696 43.2038 73.3442C43.8337 73.3408 44.4583 73.4607 45.0422 73.6971C46.2406 74.2222 47.216 75.1524 47.7974 76.3246C48.6165 75.7227 49.5922 75.3705 50.6069 75.3103C50.9082 75.3101 51.2077 75.3564 51.4949 75.4477C52.2552 75.7209 52.8821 76.2746 53.247 76.9954C54.7039 75.6798 56.6029 74.9613 58.5657 74.9829C61.58 75.1919 64.4682 76.2741 66.8776 78.0974L66.9015 78.115V68.0175C66.9007 66.5964 66.3362 65.2336 65.332 64.2282C64.3277 63.2227 62.9656 62.6561 61.5445 62.6536Z" fill="white"/>
<path d="M115.28 52.8749L106.415 57.3067L106.981 58.4397L115.846 54.008L115.28 52.8749Z" fill="white"/>
<path d="M111.29 46.5809L103.334 53.6509L104.176 54.5982L112.132 47.5282L111.29 46.5809Z" fill="white"/>
<path d="M103.626 41.4438L99.4248 51.1663L100.589 51.6692L104.789 41.9466L103.626 41.4438Z" fill="white"/>
<path d="M95.8421 39.4728H94.5739V50.3482H95.8421V39.4728Z" fill="white"/>
<path d="M86.7925 41.4436L85.6265 41.9468L89.7441 51.4757L89.8304 51.6689L90.9931 51.1658L86.8755 41.6353L86.7925 41.4436Z" fill="white"/>
<path d="M78.2858 47.5289L86.2415 54.5981L87.0848 53.651L79.1259 46.5802L78.2858 47.5289Z" fill="white"/>
<path d="M75.1341 52.8793L74.5689 54.0129L83.4386 58.4353L84.0039 57.3017L75.1341 52.8793Z" fill="white"/>
<path d="M109.302 62.6548H107.376L107.368 62.8624C107.358 64.4536 107.033 66.0271 106.411 67.4918C105.79 68.9566 104.884 70.2837 103.747 71.3963C102.808 72.3522 101.667 73.0852 100.407 73.5414L99.5077 79.7705H90.7407L89.9724 73.5909C83.3776 71.0625 83.1268 64.1338 83.0533 62.7682L83.0469 62.6548H81.1143C79.691 62.6599 78.3277 63.2292 77.3235 64.2379C76.3192 65.2466 75.756 66.6124 75.7573 68.0358V88.2644C75.7584 89.5525 76.223 90.7973 77.0661 91.7712C77.9092 92.7451 79.0746 93.3831 80.3493 93.5687H110.068C111.343 93.3831 112.508 92.7449 113.351 91.771C114.194 90.7971 114.658 89.5524 114.659 88.2644V68.0358C114.66 66.6123 114.097 65.2464 113.093 64.2376C112.089 63.2289 110.725 62.6596 109.302 62.6548ZM90.8413 81.2415H99.5572V82.5272H90.8413V81.2415ZM90.8413 83.7044H99.5572V84.9885H90.8413V83.7044ZM96.85 89.9127H93.4176V88.627H96.85V89.9127ZM99.5812 87.4514H90.8653V86.1657H99.5812V87.4514Z" fill="white"/>
<path d="M90.7108 68.9779L95.7068 66.9335L91.4152 65.6238L94.4307 62.8606L94.6319 62.6546H84.6893V62.8606C84.758 64.0984 84.9561 70.2269 91.1085 72.5301L91.2267 72.5732L91.9534 78.3104H94.5505V71.5315L95.9273 70.4007L90.7108 68.9779Z" fill="white"/>
<path d="M96.46 62.6538L96.2843 62.8615L94.053 64.9953L99.7998 66.6069L94.6616 68.7184L98.6961 69.8492L95.8898 72.138V78.3112H98.2569L99.0762 72.5341L99.1848 72.4878C101.102 71.6996 102.747 70.3688 103.918 68.6587C105.09 66.9486 105.736 64.9338 105.778 62.8615V62.6538H96.46Z" fill="white"/>
<path d="M157.129 62.6544H146.406C151.132 66.181 153.802 69.845 154.347 73.5474C154.524 75.1397 154.371 76.7516 153.897 78.2821C153.423 79.8126 152.638 81.2288 151.592 82.4422L151.501 82.5604C147.39 87.8024 138.999 91.7635 135.581 93.2217C135.195 93.3399 134.806 93.4555 134.415 93.5683H157.129C158.549 93.5638 159.909 92.9963 160.911 91.9902C161.913 90.9841 162.475 89.6216 162.474 88.2017V68.021C162.475 66.6011 161.913 65.2387 160.911 64.2326C159.909 63.2265 158.549 62.6589 157.129 62.6544Z" fill="white"/>
<path d="M143.774 62.8778L143.526 62.6878H128.793C127.373 62.6926 126.013 63.2605 125.011 64.2669C124.009 65.2733 123.448 66.6359 123.449 68.056V88.2335C123.447 89.6538 124.009 91.0168 125.011 92.0235C126.013 93.0302 127.373 93.5983 128.793 93.6033H128.872L129.482 93.4004C143.191 88.866 152.203 81.9592 152.646 75.4299C153.098 68.8574 144.706 63.4736 143.774 62.8778Z" fill="white"/>
<path d="M155.607 37.5089C155.753 36.6633 155.827 35.8068 155.829 34.9486C155.879 33.0211 155.428 31.1134 154.52 29.4127C153.611 27.712 152.276 26.2766 150.646 25.2472C148.339 23.779 145.67 22.9805 142.936 22.9408C140.202 22.901 137.511 23.6215 135.163 25.022C133.458 26.1368 132.075 27.6789 131.153 29.4946C130.23 31.3103 129.799 33.3362 129.903 35.3703C129.908 36.3696 129.99 37.3671 130.149 38.3538C130.894 43.1733 133.489 47.5122 137.383 50.4479C135.338 49.8936 132.668 49.6285 131.511 51.5036C131.37 51.6822 131.267 51.8881 131.209 52.1084C131.151 52.3286 131.139 52.5585 131.174 52.7836C131.209 53.0087 131.29 53.2241 131.412 53.4164C131.534 53.6087 131.695 53.7737 131.883 53.901C133.37 54.968 136.985 54.6853 139.168 53.4363L137.67 56.9261H147.726L145.715 52.9028C148.148 53.9202 150.969 54.8386 152.492 53.909C152.802 53.7161 153.056 53.4468 153.231 53.1271C153.406 52.8073 153.496 52.4479 153.492 52.0834C153.538 51.6955 153.479 51.3023 153.322 50.9446C153.165 50.5869 152.916 50.2776 152.599 50.0486C151.449 49.4506 150.115 49.3069 148.863 49.6461C149.041 49.5007 149.21 49.3554 149.379 49.2068C152.74 46.1409 154.94 42.0089 155.607 37.5089ZM132.625 52.8708C132.479 52.767 132.3 52.6376 132.591 52.1681C133.462 50.7498 136.373 51.2944 138.74 52.2352C137.829 52.7813 136.81 53.1213 135.753 53.2311C134.696 53.3409 133.629 53.218 132.625 52.8708ZM151.869 51.0836C152.011 51.1893 152.119 51.3328 152.183 51.4975C152.246 51.6623 152.261 51.8416 152.227 52.0147C152.236 52.1727 152.205 52.3303 152.136 52.4727C152.067 52.615 151.962 52.7372 151.833 52.8277C151.258 53.1791 149.787 53.2478 146.062 51.6761C148.333 50.9191 150.911 50.4079 151.869 51.0836ZM144.465 50.9015C144.313 50.9622 144.198 51.0069 144.144 51.0293L143.701 51.1826L143.489 51.2864L143.497 51.2992L142.764 51.6027L143.899 52.1106L145.675 55.6596H139.595L141.345 51.5755L140.708 51.197C138.261 49.8812 136.15 48.0208 134.536 45.7593C132.923 43.4978 131.851 40.8958 131.403 38.1542C131.255 37.2394 131.178 36.3145 131.174 35.3878C131.074 33.5642 131.453 31.7461 132.273 30.1144C133.094 28.4827 134.327 27.0943 135.851 26.0873C137.99 24.8149 140.441 24.1615 142.93 24.1999C145.419 24.2382 147.849 24.9668 149.948 26.3045C151.401 27.2254 152.59 28.5077 153.398 30.026C154.207 31.5444 154.607 33.2466 154.561 34.9662C154.558 35.7478 154.49 36.5279 154.356 37.2981C153.969 40.2094 152.862 42.978 151.134 45.3534C149.407 47.7287 147.115 49.6357 144.465 50.9015Z" fill="white"/>
<path d="M145.868 62.4048L145.782 62.3441C145.78 62.3425 145.766 62.3361 145.742 62.3202C144.789 61.727 143.972 60.9403 143.344 60.0111C142.715 59.082 142.288 58.031 142.092 56.9264H140.726C140.944 59.0134 141.943 60.9405 143.524 62.3202C143.558 62.3489 143.595 62.3761 143.631 62.4048C143.684 62.4463 143.735 62.4895 143.788 62.5294H145.827L146.046 62.5278L145.868 62.4048Z" fill="white"/>
<text transform="translate(28 22.9392)" fill="white" xml:space="preserve" style="white-space: pre" font-family="Helvetica" font-size="12.6562" letter-spacing="0em"><tspan x="7.45903" y="37.096">nerc</tspan></text>
<text fill="white" xml:space="preserve" style="white-space: pre" font-family="Helvetica" font-size="20.0391" letter-spacing="0em"><tspan x="28" y="119.257">icpc.foundation</tspan></text>
<text fill="white" xml:space="preserve" style="white-space: pre" font-family="Helvetica" font-size="39.7154" font-weight="bold" letter-spacing="0em"><tspan x="192.786" y="58.7022">{TeamName}</tspan></text>
<text fill="white" xml:space="preserve" style="white-space: pre" font-family="Helvetica" font-size="27.3714" font-weight="bold" letter-spacing="0em"><tspan x="387.567" y="101.718">  </tspan></text>
<text fill="white" xml:space="preserve" style="white-space: pre" font-family="Helvetica" font-size="27.3714" font-weight="bold" letter-spacing="0em"><tspan x="192.786" y="101.718">{University}</tspan></text>
<text opacity="0.75" fill="white" xml:space="preserve" style="white-space: pre" font-family="Helvetica" font-size="27.3714" font-weight="bold" letter-spacing="0em"><tspan x="409.684" y="101.718">{Contestants}</tspan></text>
<path d="M1146.3 119.516C1043.61 193.204 892.287 214.184 864 217.596C866.416 230.602 866.473 374.823 986.387 386.251C1136.28 400.537 1304.93 331.454 1391.29 190.304C1460.37 77.3837 1590.08 67.3483 1646.3 76.4456C1599.25 36.5739 1478.62 -38.5641 1372.52 -20.1421C1239.9 2.88546 1274.66 27.4055 1146.3 119.516Z" fill="white"/>
<path d="M1374.79 156.496C1374.92 156.517 1375.04 156.54 1375.17 156.563C1378.93 157.275 1381.84 158.853 1383.23 160.798L1383.93 161.726M1374.79 156.496C1373.82 156.328 1372.89 156.233 1372.09 156.233L1360.75 156.233C1359.94 156.233 1359.02 156.325 1358.05 156.489M1374.79 156.496L1374.79 152.055M1358.05 156.489C1357.95 156.506 1357.85 156.524 1357.75 156.542C1353.95 157.242 1351.02 158.832 1349.62 160.79L1348.94 161.726M1358.05 156.489L1358.05 152.042M1348.94 161.726L1383.93 161.726M1348.94 161.726L1345.06 161.725M1383.93 161.726L1387.78 161.726M1383.67 142.35C1383.67 142.35 1382.54 142.066 1381.97 140.756C1381.41 139.445 1381.65 136.788 1382.22 137.071C1382.26 137.09 1382.31 137.109 1382.36 137.127M1383.67 142.35C1384.48 141.627 1389.98 136.653 1391.29 134.131C1392.71 131.403 1393.17 129.206 1392.42 127.79C1392.03 127.033 1391.64 126.671 1391.37 126.497C1391.15 126.36 1390.87 126.396 1390.69 126.57C1390.28 126.944 1389.57 127.786 1389.34 129.207C1389.02 131.226 1388.56 134.45 1387.08 136.044C1385.69 137.532 1383.16 137.384 1382.36 137.127M1383.67 142.35L1383.22 143.754C1381.82 147.533 1378.89 150.601 1375.09 151.952C1374.99 151.988 1374.89 152.022 1374.79 152.055M1349.1 142.351C1349.1 142.351 1350.23 142.067 1350.8 140.756C1351.36 139.446 1351.11 136.789 1350.55 137.072C1350.53 137.082 1350.51 137.092 1350.48 137.102M1349.1 142.351C1349.1 142.351 1342.9 136.86 1341.48 134.132C1340.06 131.404 1339.6 129.207 1340.35 127.791C1340.73 127.06 1341.1 126.697 1341.37 126.517C1341.6 126.364 1341.91 126.403 1342.11 126.592C1342.51 126.977 1343.21 127.814 1343.43 129.208C1343.75 131.227 1344.21 134.45 1345.69 136.045C1347.13 137.583 1349.79 137.373 1350.48 137.102M1349.1 142.351L1349.62 143.739C1351 147.494 1353.92 150.539 1357.68 151.911C1357.8 151.957 1357.93 152 1358.05 152.042M1383.89 188.967L1348.6 188.967M1383.89 188.967L1387.78 192.226M1383.89 188.967L1348.6 188.968M1383.89 188.967L1383.89 164.879M1348.6 188.967L1348.6 164.877M1348.6 188.967L1345.06 192.224M1348.6 164.877L1383.89 164.878M1348.6 164.877L1345.06 161.725M1383.89 164.878L1383.89 164.879M1383.89 164.878L1387.78 161.726M1345.06 161.725L1348.6 164.878M1345.06 161.725L1345.06 192.224M1345.06 161.725L1387.78 161.726M1348.6 164.878L1348.6 188.968M1348.6 164.878L1383.89 164.879M1348.6 188.968L1345.06 192.226M1387.78 192.226L1387.78 161.728M1387.78 192.226L1345.06 192.226M1349.06 122.064C1348.31 120.105 1347.29 118.252 1346 116.566L1348.01 115.803C1359.57 111.435 1372.31 111.334 1383.94 115.518L1386.85 116.566C1385.56 118.253 1384.53 120.106 1383.79 122.064M1349.06 122.064C1349.99 124.522 1350.48 127.146 1350.48 129.811L1350.48 137.102M1349.06 122.064C1344.11 120.689 1341.02 118.735 1341.02 116.567C1341.02 112.407 1352.4 109.036 1366.42 109.035C1380.45 109.036 1391.82 112.408 1391.82 116.567C1391.82 118.736 1388.73 120.69 1383.79 122.064M1383.79 122.064C1382.85 124.523 1382.36 127.146 1382.36 129.811L1382.36 137.127M1358.05 152.042C1359.02 152.365 1359.95 152.548 1360.75 152.548L1372.09 152.548C1372.9 152.548 1373.83 152.372 1374.79 152.055M1383.89 164.879H1383.89L1387.78 161.728M1387.78 161.728L1387.78 161.726H1387.78M1387.78 161.728L1387.78 161.725L1387.78 161.726M1345.06 192.226H1345.06L1345.06 192.224M1345.06 192.226L1345.06 192.227L1345.06 192.224" stroke="#FDBA12" stroke-width="1.25562" stroke-miterlimit="10" stroke-linejoin="round"/>
<path d="M1321.8 50.5113C1321.93 50.4436 1322.06 50.3765 1322.19 50.3101C1326.13 48.3246 1329.9 47.7281 1332.54 48.5349L1333.83 48.894M1321.8 50.5113C1320.8 51.0401 1319.88 51.6047 1319.15 52.1656L1308.77 60.1122C1308.03 60.6802 1307.25 61.413 1306.48 62.2408M1321.8 50.5113L1318.69 46.4485M1306.48 62.2408C1306.4 62.3265 1306.32 62.4132 1306.24 62.5009C1303.26 65.802 1301.69 69.3145 1301.78 72.0857L1301.81 73.4216M1306.48 62.2408L1303.36 58.1713M1301.81 73.4216L1333.83 48.894M1301.81 73.4216L1298.26 76.139M1333.83 48.894L1337.36 46.1925M1320.02 31.3409C1320.02 31.3409 1318.78 31.8762 1317.34 31.0743C1315.9 30.2721 1314.27 27.6672 1314.99 27.529C1315.03 27.5198 1315.09 27.5036 1315.16 27.4806M1320.02 31.3409C1320.25 30.1133 1321.79 21.707 1321.22 18.4812C1320.61 14.992 1319.49 12.659 1317.82 11.8841C1316.92 11.4705 1316.31 11.4099 1315.94 11.4432C1315.65 11.4696 1315.42 11.6955 1315.37 11.9861C1315.26 12.6119 1315.2 13.8841 1315.99 15.3413C1317.11 17.4124 1318.95 20.6852 1318.71 23.1867C1318.48 25.5214 1316.06 27.1601 1315.16 27.4806M1320.02 31.3409L1320.59 32.9426C1321.96 37.3798 1321.42 42.2447 1318.9 46.1416C1318.83 46.2455 1318.76 46.3479 1318.69 46.4485M1288.38 55.5816C1288.38 55.5816 1289.21 54.5276 1288.81 52.9309C1288.41 51.334 1286.32 49.0767 1286 49.7333C1285.99 49.7563 1285.98 49.7813 1285.96 49.8079M1288.38 55.5816C1288.38 55.5816 1278.85 54.9033 1275.64 53.4005C1272.44 51.898 1270.47 50.2109 1270.16 48.393C1270 47.4564 1270.09 46.8621 1270.21 46.5057C1270.31 46.2054 1270.62 46.0295 1270.93 46.0619C1271.58 46.1277 1272.8 46.4078 1273.98 47.529C1275.68 49.1533 1278.36 51.78 1280.84 52.1958C1283.24 52.5969 1285.52 50.5426 1285.96 49.8079M1288.38 55.5816L1289.83 56.4868C1293.73 58.949 1298.53 59.6952 1302.93 58.3142C1303.08 58.2682 1303.22 58.2205 1303.36 58.1713M1352.89 73.8439L1320.6 98.5856M1352.89 73.8439L1358.74 74.0985M1352.89 73.8439L1320.6 98.5852M1352.89 73.8439L1336.01 51.8031M1320.6 98.5856L1303.71 76.5433M1320.6 98.5856L1319.64 104.046M1303.71 76.5433L1336.01 51.8017M1303.71 76.5433L1298.26 76.139M1336.01 51.8017L1336.01 51.8031M1336.01 51.8017L1337.36 46.1925M1298.26 76.139L1303.71 76.543M1298.26 76.139L1319.64 104.046M1298.26 76.139L1337.36 46.1925M1303.71 76.543L1320.6 98.5852M1303.71 76.543L1336.01 51.8031M1320.6 98.5852L1319.65 104.046M1358.74 74.0985L1337.36 46.1923M1358.74 74.0985L1319.65 104.046M1274.12 37.0455C1272.07 35.7757 1269.83 34.8004 1267.46 34.1619L1268.78 32.0487C1276.29 19.9489 1287.87 10.927 1301.45 6.60566L1304.85 5.523C1304.85 7.97 1305.21 10.3865 1305.9 12.7004M1274.12 37.0455C1276.7 38.6398 1278.98 40.6981 1280.85 43.1365L1285.96 49.8079M1274.12 37.0455C1268.63 39.2546 1264.43 39.6324 1262.91 37.6485C1260 33.8424 1268.04 22.785 1280.88 12.9508C1293.71 3.11694 1306.48 -1.76973 1309.4 2.03638C1310.92 4.02058 1309.46 7.97549 1305.9 12.7004M1305.9 12.7004C1306.77 15.605 1308.16 18.3477 1310.03 20.7859L1315.16 27.4806M1303.36 58.1713C1304.48 57.7849 1305.46 57.3006 1306.19 56.7396L1316.57 48.7927C1317.31 48.225 1318.03 47.4154 1318.69 46.4485M1336.01 51.8031L1336.01 51.8017L1337.36 46.1923M1337.36 46.1923L1337.36 46.1896L1337.36 46.1925M1337.36 46.1923L1337.36 46.1892L1337.36 46.1925M1319.65 104.046L1319.64 104.048L1319.64 104.046M1319.65 104.046L1319.65 104.048L1319.64 104.046" stroke="#B22C1B" stroke-width="1.25571" stroke-miterlimit="10" stroke-linejoin="round"/>
<path d="M1433.88 53.641C1434.04 53.7149 1434.2 53.7905 1434.36 53.868C1439.18 56.1837 1442.54 59.3639 1443.72 62.4924L1444.33 63.9975M1433.88 53.641C1432.62 53.0643 1431.4 52.6015 1430.32 52.3134L1415.01 48.2282C1413.92 47.9363 1412.63 47.7259 1411.27 47.6M1433.88 53.641L1435.48 47.6438M1411.27 47.6C1411.13 47.5869 1410.98 47.5748 1410.84 47.5636C1405.46 47.1414 1400.93 48.2312 1398.33 50.3723L1397.07 51.3884M1411.27 47.6L1412.87 41.5931M1397.07 51.3884L1444.33 63.9975M1397.07 51.3884L1391.83 49.9914M1444.33 63.9975L1449.53 65.3862M1450.97 37.7357C1450.97 37.7357 1449.54 36.9444 1449.25 34.9699C1448.96 32.9953 1450.25 29.4961 1450.91 30.0829C1450.96 30.1221 1451.01 30.1649 1451.08 30.2102M1450.97 37.7357C1452.32 37.0502 1461.54 32.3137 1464.22 29.3795C1467.12 26.206 1468.53 23.4049 1468.04 21.2233C1467.77 20.0587 1467.38 19.4295 1467.07 19.0955C1466.83 18.8332 1466.44 18.782 1466.13 18.9491C1465.45 19.3088 1464.18 20.1886 1463.36 22.0265C1462.2 24.639 1460.42 28.8272 1457.84 30.4441C1455.42 31.9532 1452.06 30.8424 1451.08 30.2102M1450.97 37.7357L1449.85 39.4698C1446.61 44.07 1441.54 47.1562 1435.92 47.613C1435.77 47.6252 1435.62 47.6355 1435.48 47.6438M1404.27 25.2773C1404.27 25.2773 1405.9 25.303 1407.14 23.7367C1408.38 22.1706 1409 18.4927 1408.13 18.671C1408.1 18.6772 1408.07 18.6825 1408.03 18.6867M1404.27 25.2773C1404.27 25.2773 1397.87 15.6267 1396.94 11.4318C1396.01 7.23685 1396.18 4.10409 1397.69 2.45857C1398.48 1.61059 1399.11 1.25465 1399.54 1.10872C1399.91 0.985559 1400.3 1.14719 1400.51 1.47478C1400.92 2.14096 1401.55 3.52115 1401.35 5.48307C1401.05 8.32531 1400.51 12.8452 1401.95 15.5346C1403.33 18.1298 1406.99 18.8031 1408.03 18.6867M1404.27 25.2773L1404.47 27.3406C1404.99 32.9121 1407.83 38.0741 1412.41 41.2822C1412.56 41.389 1412.72 41.4927 1412.87 41.5931M1434.47 100.778L1386.8 88.0599M1434.47 100.778L1438.55 106.582M1434.47 100.778L1386.8 88.0618M1434.47 100.778L1443.15 68.2436M1386.8 88.0599L1395.48 55.5229M1386.8 88.0599L1380.84 91.1847M1395.48 55.5229L1443.15 68.2414M1395.48 55.5229L1391.83 49.9914M1443.15 68.2414L1443.15 68.2436M1443.15 68.2414L1449.53 65.3862M1391.83 49.9914L1395.48 55.5251M1391.83 49.9914L1380.84 91.1847M1391.83 49.9914L1449.53 65.3862M1395.48 55.5251L1386.8 88.0618M1395.48 55.5251L1443.15 68.2436M1386.8 88.0618L1380.85 91.1874M1438.55 106.582L1449.54 65.3891M1438.55 106.582L1380.85 91.1874M1411.52 -2.13739C1411.22 -5.05037 1410.5 -7.92383 1409.37 -10.6655L1412.37 -10.9687C1429.56 -12.704 1446.8 -8.25064 1460.99 1.59033L1464.55 4.05562C1462.2 5.86816 1460.14 8.00134 1458.43 10.3781M1411.52 -2.13739C1411.9 1.51998 1411.62 5.23967 1410.66 8.83901L1408.03 18.6867M1411.52 -2.13739C1405.34 -5.77536 1401.87 -9.52804 1402.65 -12.4564C1404.15 -18.0746 1420.73 -18.5311 1439.67 -13.4763C1458.62 -8.42094 1472.77 0.231308 1471.27 5.84953C1470.49 8.77841 1465.61 10.3045 1458.43 10.3781M1458.43 10.3781C1456.28 13.3617 1454.68 16.7291 1453.72 20.3281L1451.08 30.2102M1412.87 41.5931C1414.07 42.3808 1415.26 42.9632 1416.34 43.2516L1431.65 47.3363C1432.74 47.6284 1434.06 47.7242 1435.48 47.6438M1443.15 68.2436L1443.15 68.2443L1449.54 65.3891M1449.54 65.3891L1449.54 65.3878L1449.53 65.3862M1449.54 65.3891L1449.54 65.3845L1449.53 65.3862M1380.85 91.1874L1380.84 91.1863L1380.84 91.1847M1380.85 91.1874L1380.84 91.1886L1380.84 91.1847" stroke="#4C83C3" stroke-width="1.25571" stroke-miterlimit="10" stroke-linejoin="round"/>
<path d="M1240.44 136.897C1240.57 136.971 1240.7 137.046 1240.82 137.123C1244.65 139.418 1247.19 142.317 1247.92 145.003L1248.31 146.299M1240.44 136.897C1239.45 136.321 1238.47 135.843 1237.59 135.52L1225.21 130.944C1224.32 130.617 1223.28 130.343 1222.15 130.133M1240.44 136.897L1242.23 132.046M1222.15 130.133C1222.04 130.111 1221.92 130.09 1221.8 130.07C1217.37 129.303 1213.52 129.855 1211.21 131.431L1210.08 132.176M1222.15 130.133L1223.95 125.274M1210.08 132.176L1248.31 146.299M1210.08 132.176L1205.85 130.611M1248.31 146.299L1252.52 147.854M1255.85 125.027C1255.85 125.027 1254.73 124.26 1254.64 122.599C1254.55 120.939 1255.89 118.136 1256.4 118.674C1256.43 118.71 1256.48 118.75 1256.53 118.793M1255.85 125.027C1257.03 124.563 1265.04 121.349 1267.49 119.122C1270.14 116.714 1271.53 114.5 1271.29 112.652C1271.16 111.665 1270.89 111.113 1270.66 110.812C1270.48 110.576 1270.16 110.503 1269.88 110.617C1269.29 110.863 1268.17 111.494 1267.35 112.956C1266.19 115.033 1264.38 118.37 1262.12 119.511C1260 120.576 1257.29 119.393 1256.53 118.793M1255.85 125.027L1254.79 126.38C1251.74 129.944 1247.3 132.111 1242.61 132.055C1242.48 132.053 1242.36 132.05 1242.23 132.046M1218.08 111.072C1218.08 111.072 1219.43 111.22 1220.58 110.017C1221.73 108.813 1222.53 105.811 1221.79 105.891C1221.77 105.894 1221.74 105.896 1221.71 105.896M1218.08 111.072C1218.08 111.072 1213.52 102.571 1213.07 99.0185C1212.62 95.4663 1213.01 92.8805 1214.39 91.6329C1215.11 90.99 1215.66 90.7439 1216.03 90.6564C1216.34 90.5825 1216.66 90.7472 1216.8 91.0346C1217.09 91.6192 1217.51 92.8134 1217.19 94.4251C1216.72 96.7599 1215.92 100.468 1216.91 102.81C1217.85 105.07 1220.84 105.913 1221.71 105.896M1218.08 111.072L1218.08 112.8C1218.09 117.462 1220.04 121.964 1223.59 124.981C1223.71 125.081 1223.83 125.179 1223.95 125.274M1237.28 176.047L1198.72 161.801M1237.28 176.047L1240.21 181.178M1237.28 176.047L1198.72 161.803M1237.28 176.047L1247 149.73M1198.72 161.801L1208.44 135.482M1198.72 161.801L1193.54 163.932M1208.44 135.482L1247 149.728M1208.44 135.482L1205.85 130.611M1247 149.728L1247 149.73M1247 149.728L1252.52 147.854M1205.85 130.611L1208.44 135.484M1205.85 130.611L1193.54 163.932M1205.85 130.611L1252.52 147.854M1208.44 135.484L1198.72 161.803M1208.44 135.484L1247 149.73M1198.72 161.803L1193.54 163.934M1240.21 181.178L1252.52 147.857M1240.21 181.178L1193.54 163.934M1226.22 88.8922C1226.2 86.4524 1225.82 84.0128 1225.1 81.6505L1227.61 81.6316C1242 81.5241 1255.96 86.5548 1266.97 95.8189L1269.73 98.1397C1267.64 99.4612 1265.77 101.071 1264.17 102.911M1226.22 88.8922C1226.25 91.9555 1225.73 95.0191 1224.65 97.9306L1221.71 105.896M1226.22 88.8922C1221.37 85.3949 1218.79 82.0129 1219.66 79.6441C1221.34 75.0996 1235.13 76.0057 1250.45 81.6676C1265.78 87.33 1276.84 95.6041 1275.16 100.149C1274.29 102.518 1270.12 103.406 1264.17 102.911M1264.17 102.911C1262.15 105.219 1260.56 107.888 1259.48 110.799L1256.53 118.793M1223.95 125.274C1224.88 126.021 1225.82 126.596 1226.7 126.919L1239.08 131.494C1239.97 131.821 1241.05 132.003 1242.23 132.046M1247 149.73L1247 149.73L1252.52 147.857M1252.52 147.857L1252.52 147.856L1252.52 147.854M1252.52 147.857L1252.52 147.853L1252.52 147.854M1193.54 163.934L1193.53 163.933L1193.54 163.932M1193.54 163.934L1193.54 163.935L1193.54 163.932" stroke="#4C83C3" stroke-width="1.25571" stroke-miterlimit="10" stroke-linejoin="round"/>
</g>
<defs>
<clipPath id="clip0_1094_5241">
<path d="M0 0H1488V132C1488 140.837 1480.84 148 1472 148H16C7.16343 148 0 140.837 0 132V0Z" fill="white"/>
</clipPath>
</defs>
</svg>
