<svg width="1350" height="970" viewBox="0 0 1350 970" fill="none" xmlns="http://www.w3.org/2000/svg">
    <g clip-path="url(#clip0_3579_79859)">
        <g clip-path="url(#clip1_3579_79859)">
            <path d="M0 765H1350V954.001C1350 962.837 1342.84 970.001 1334 970.001H16C7.16344 970.001 0 962.837 0 954.001V765Z"
                  fill="white"/>
            <path d="M978.453 810.156C979.394 822.446 984.798 834.084 988.783 845.908C996.706 869.292 999.125 894.196 995.849 918.672C994.605 927.875 992.548 937.114 993.525 946.352C994.501 955.59 998.998 965.096 1008.04 970.047C1018.9 976 1032.89 973.973 1045.63 972.528C1086.72 967.869 1128.35 971.573 1169.75 972.983C1211.15 974.392 1253.75 973.309 1292.12 959.772C1304.8 955.31 1317.14 949.287 1326.03 940.294C1337.14 929.029 1341.87 914.105 1344.79 899.52C1348.27 882.046 1349.64 864.129 1346.8 846.573C1343.22 824.438 1332.85 803.166 1317.07 785.493C1309.03 776.488 1299.29 768.229 1287.18 763.767C1273.93 758.886 1259.02 758.967 1244.61 759.107L1138.19 760.272C1102.98 760.656 1067.49 761.041 1032.72 766.47C1002.91 771.129 976.036 778.574 978.488 810.179"
                  fill="#0097D6" fill-opacity="0.2"/>
            <path d="M903 875L956.899 928.899" stroke="#F0CAE0" stroke-width="18.4909" stroke-miterlimit="10"/>
            <path d="M606 931L659.899 984.899" stroke="#0C97D4" stroke-opacity="0.3" stroke-width="18.4909"
                  stroke-miterlimit="10"/>
            <path d="M748.102 756.601L802.001 810.5" stroke="#0C97D4" stroke-opacity="0.3" stroke-width="18.4909"
                  stroke-miterlimit="10"/>
            <path d="M804 941.231H776.176L793.217 952.811V963.093L776.08 974.769H804V990H751V974.817L775.839 958L751 941.135V926H804V941.231Z"
                  fill="#8FCEA5" fill-opacity="0.3"/>
            <path d="M597.673 796.467C597.673 794.621 597.133 793.062 596.011 791.791C594.931 790.561 593.519 789.945 591.858 789.945C590.944 789.945 589.989 790.232 589.033 790.807C588.036 791.381 587.039 792.201 586.084 793.268L582.761 797.041L586.084 800.732C587.039 801.799 588.036 802.619 589.033 803.234C589.989 803.809 590.944 804.096 591.858 804.096C593.519 804.096 594.931 803.48 596.011 802.25C597.133 800.979 597.673 799.42 597.673 797.574V796.467ZM556.967 803.234C558.005 802.619 558.961 801.799 559.874 800.732L563.197 797.041L559.874 793.268C558.919 792.201 557.922 791.381 556.967 790.807C555.97 790.232 555.015 789.945 554.101 789.945C552.439 789.945 551.027 790.561 549.947 791.791C548.867 793.062 548.286 794.621 548.286 796.467V797.574C548.286 799.42 548.867 800.979 549.947 802.25C551.027 803.48 552.439 804.096 554.101 804.096C554.973 804.096 555.928 803.809 556.967 803.234ZM602.823 778.625C605.98 780.389 608.472 782.809 610.3 785.926C612.086 789.002 613 792.529 613 796.467V797.574C613 801.512 612.086 804.998 610.3 808.115C608.472 811.232 605.98 813.652 602.823 815.375C599.667 817.139 596.053 818 592.024 818C588.161 818 584.921 817.303 582.221 815.908C579.563 814.514 576.697 811.93 573.582 808.238L573.042 807.541L572.377 808.238C569.262 811.93 566.396 814.514 563.779 815.908C561.12 817.303 557.881 818 553.935 818C549.906 818 546.292 817.139 543.135 815.375C539.978 813.652 537.486 811.232 535.7 808.115C533.872 804.998 533 801.512 533 797.574V796.467C533 792.529 533.872 789.002 535.7 785.926C537.486 782.809 539.978 780.389 543.135 778.625C546.292 776.902 549.906 776 553.935 776C557.881 776 561.12 776.738 563.779 778.133C566.396 779.527 569.262 782.07 572.377 785.803L573.042 786.541L573.582 785.803C576.697 782.07 579.563 779.527 582.221 778.133C584.921 776.738 588.161 776 592.024 776C596.053 776 599.667 776.902 602.823 778.625"
                  fill="#F0CAE0"/>
            <text opacity="0.75" fill="#C657A0" xml:space="preserve" style="white-space: pre" font-family="Helvetica"
                  font-size="30" letter-spacing="0em"><tspan x="267" y="833.96">{additionalInfo}</tspan></text>
            <text fill="#0094D4" xml:space="preserve" style="white-space: pre" font-family="Helvetica" font-size="37"
                  letter-spacing="0em"><tspan x="267" y="880.861">{Name}</tspan></text>
            <text opacity="0.75" fill="black" xml:space="preserve" style="white-space: pre" font-family="Helvetica"
                  font-size="27.5676" letter-spacing="0em"><tspan x="267" y="918.341">{Region}</tspan></text>
            <text fill="#C657A0" xml:space="preserve" style="white-space: pre" font-family="Helvetica"
                  font-size="30.7692" letter-spacing="0em"><tspan x="1022.5" y="838.831">1 &#x442;&#x443;&#x440;</tspan></text>
            <text fill="black" xml:space="preserve" style="white-space: pre" font-family="Helvetica" font-size="55"
                  letter-spacing="0em"><tspan x="1015" y="909.51">{d1}</tspan></text>
            <text fill="#C657A0" xml:space="preserve" style="white-space: pre" font-family="Helvetica"
                  font-size="30.7692" letter-spacing="0em"><tspan x="1132.5" y="838.831">2 &#x442;&#x443;&#x440;</tspan></text>
            <text fill="black" xml:space="preserve" style="white-space: pre" font-family="Helvetica" font-size="55"
                  letter-spacing="0em"><tspan x="1125" y="909.51">{d2}</tspan></text>
            <text fill="#C657A0" xml:space="preserve" style="white-space: pre" font-family="Helvetica"
                  font-size="30.7692" letter-spacing="0em"><tspan x="1246.5" y="838.831">SUM</tspan></text>
            <text fill="#C657A0" xml:space="preserve" style="white-space: pre" font-family="Helvetica" font-size="55"
                  letter-spacing="0em"><tspan x="1235" y="909.51">{sum}</tspan></text>
            <g clip-path="url(#clip2_3579_79859)">
                <path d="M49.9273 872.339C49.9273 870.893 48.8865 870.178 46.7708 870.178H33.9226V875.164H46.7708C48.8865 875.164 49.9273 874.432 49.9273 873.003V872.339ZM33.9226 856.668V861.33H45.8664C47.9651 861.33 49.023 860.65 49.023 859.288V858.71C49.023 857.349 47.9651 856.668 45.8664 856.668H33.9226ZM60.6256 869.038C61.4912 870.513 61.9339 872.196 61.9053 873.905V874.483C61.9651 875.996 61.6378 877.499 60.9542 878.85C60.2706 880.202 59.2532 881.357 57.9979 882.208C54.7093 884.24 50.8715 885.209 47.0096 884.982H22.1836V846.765H45.9006C49.7588 846.528 53.5964 847.485 56.8889 849.504C58.1338 850.366 59.14 851.528 59.8142 852.881C60.4884 854.235 60.8085 855.737 60.745 857.246V857.825C60.8072 859.345 60.4794 860.855 59.7927 862.213C59.1059 863.57 58.0829 864.731 56.8206 865.584C58.3763 866.351 59.692 867.528 60.6256 868.987"
                      fill="#231F20"/>
                <path d="M80.2095 883.315C76.8114 881.894 73.8925 879.532 71.7977 876.509C69.7842 873.419 68.7498 869.796 68.8288 866.112V865.823C68.7466 862.139 69.7813 858.515 71.7977 855.427C73.8857 852.373 76.8038 849.976 80.2095 848.518C84.195 846.813 88.5 845.978 92.8358 846.068C96.9764 845.997 101.091 846.731 104.95 848.229C108.229 849.452 111.117 851.532 113.311 854.253C115.264 856.732 116.322 859.795 116.314 862.948V863.356H104.37V862.948C104.338 861.987 104.026 861.057 103.471 860.271C102.916 859.485 102.144 858.878 101.248 858.523C98.5823 857.281 95.6559 856.697 92.7164 856.822C89.5562 856.596 86.4034 857.351 83.6903 858.983C82.6968 859.756 81.9094 860.761 81.3975 861.91C80.8857 863.058 80.6652 864.314 80.7555 865.568V866.146C80.6597 867.391 80.8762 868.641 81.3856 869.781C81.895 870.922 82.6812 871.918 83.6732 872.68C86.4279 874.282 89.6051 875.012 92.7846 874.773C95.7106 874.928 98.6323 874.398 101.316 873.225C102.196 872.886 102.956 872.294 103.499 871.525C104.043 870.756 104.346 869.844 104.37 868.903V868.495H116.314V868.903C116.334 872.052 115.274 875.114 113.311 877.581C111.105 880.281 108.22 882.348 104.95 883.57C101.091 885.069 96.9764 885.803 92.8358 885.731C88.5032 885.823 84.2002 885 80.2095 883.315Z"
                      fill="#231F20"/>
                <path d="M200.946 846.767V874.502H213.453V846.767H225.192V874.502H237.699V846.767H249.438V884.983H189.207V846.767H200.946Z"
                      fill="#231F20"/>
                <path d="M133.639 865.857C135.176 866.061 136.573 866.857 137.53 868.075C138.486 869.293 138.927 870.836 138.757 872.374V875.471C138.757 876.605 139.44 877.172 140.805 877.172H147.033V885.799H138.945C137.169 885.826 135.412 885.423 133.826 884.625C132.36 883.895 131.131 882.766 130.279 881.369C129.428 879.972 128.99 878.364 129.015 876.73V871.761C129.024 871.527 128.98 871.293 128.885 871.078C128.791 870.862 128.648 870.671 128.469 870.519C128.036 870.2 127.504 870.044 126.967 870.077H123.555V861.552H126.967C127.504 861.585 128.036 861.429 128.469 861.11C128.649 860.958 128.792 860.768 128.887 860.552C128.982 860.337 129.025 860.103 129.015 859.868V855.052C128.993 853.409 129.436 851.793 130.294 850.39C131.153 849.01 132.374 847.892 133.826 847.157C135.414 846.364 137.17 845.967 138.945 846H147.033V854.508H140.754C140.206 854.475 139.664 854.631 139.218 854.95C139.047 855.107 138.912 855.3 138.823 855.514C138.735 855.729 138.695 855.96 138.706 856.192V859.34C138.876 860.878 138.435 862.421 137.479 863.639C136.522 864.857 135.125 865.653 133.587 865.857"
                      fill="#0097D6"/>
                <path d="M182.298 861.552V870.059H178.886C178.347 870.031 177.815 870.194 177.384 870.519C177.204 870.67 177.061 870.861 176.966 871.076C176.871 871.292 176.828 871.526 176.838 871.761V876.593C176.86 878.225 176.42 879.829 175.569 881.223C174.718 882.616 173.49 883.742 172.027 884.471C170.441 885.27 168.684 885.673 166.908 885.645H158.82V877.138H165.099C165.647 877.17 166.189 877.014 166.635 876.695C166.808 876.536 166.943 876.34 167.032 876.123C167.12 875.905 167.159 875.671 167.147 875.436V872.39C166.977 870.853 167.418 869.31 168.375 868.092C169.331 866.874 170.728 866.078 172.266 865.873C170.726 865.665 169.33 864.866 168.373 863.645C167.417 862.424 166.977 860.879 167.147 859.339V856.26C167.147 855.171 166.464 854.558 165.099 854.558H158.82V845.999H166.908C168.684 845.972 170.441 846.375 172.027 847.173C173.493 847.904 174.722 849.033 175.574 850.429C176.425 851.826 176.863 853.434 176.838 855.069V859.85C176.829 860.085 176.873 860.319 176.968 860.534C177.062 860.749 177.205 860.94 177.384 861.092C177.821 861.404 178.35 861.559 178.886 861.535L182.298 861.552Z"
                      fill="#0097D6"/>
            </g>
            <path d="M27.156 902.309V911.62L34.3125 902.309H38.9298V918.392H34.0817V909.157L26.9251 918.392H22V902.309H27.156Z"
                  fill="#0094D4"/>
            <path d="M47.5492 902.309V908.157H54.3211V902.309H59.2462V918.392H54.3211V912.543H47.2413V918.392H42.3164V902.309H47.5492Z"
                  fill="#0094D4"/>
            <path d="M83.4691 904.463C84.6099 904.926 85.5781 905.732 86.2393 906.771C86.866 907.844 87.1854 909.069 87.1627 910.311C87.1978 911.555 86.8775 912.783 86.2393 913.851C85.5781 914.89 84.6099 915.696 83.4691 916.159C82.1461 916.68 80.7352 916.941 79.3135 916.929H77.3897V918.545H72.4646V916.929H69.6944C68.239 916.956 66.7952 916.667 65.4621 916.082C64.3126 915.674 63.3357 914.887 62.6916 913.851C62.0534 912.783 61.7331 911.555 61.7682 910.311C61.7455 909.069 62.0649 907.844 62.6916 906.771C63.3528 905.732 64.3212 904.926 65.4621 904.463C66.8018 903.907 68.2448 903.644 69.6944 903.693H71.9261V902H77.3897V903.693H79.6982C80.9937 903.697 82.2756 903.959 83.4691 904.463ZM67.6167 912.158C68.2591 912.632 69.0538 912.851 69.8482 912.773H72.3108V907.694H69.6944C68.9105 907.609 68.1211 907.799 67.4627 908.233C67.218 908.471 67.0292 908.76 66.9094 909.079C66.7897 909.398 66.742 909.74 66.7701 910.08C66.6648 910.494 66.6896 910.93 66.8411 911.33C66.9925 911.729 67.2634 912.072 67.6167 912.312V912.158ZM82.1608 910.08C82.1889 909.74 82.1415 909.398 82.0217 909.079C81.902 908.76 81.7129 908.471 81.4682 908.233C80.839 907.798 80.0733 907.607 79.3135 907.694H76.851V912.773H79.3135C80.1054 912.824 80.8914 912.607 81.5452 912.158C81.7762 911.913 81.9509 911.621 82.0572 911.302C82.1635 910.983 82.1989 910.645 82.1608 910.311V910.08Z"
                  fill="#0094D4"/>
            <path d="M93.8662 917.705C92.4162 917.113 91.1811 916.093 90.3262 914.781C89.4973 913.498 89.0686 911.998 89.0949 910.471C89.1006 908.925 89.5262 907.408 90.3262 906.085C91.1927 904.801 92.4266 903.809 93.8662 903.238C95.519 902.526 97.2995 902.159 99.0989 902.159C100.898 902.159 102.679 902.526 104.332 903.238C105.761 903.791 106.975 904.789 107.795 906.085C108.638 907.389 109.067 908.918 109.026 910.471C109.067 912.024 108.638 913.553 107.795 914.858C106.949 916.129 105.743 917.12 104.332 917.705C100.971 919.041 97.2267 919.041 93.8662 917.705ZM102.793 913.241C103.213 912.937 103.548 912.529 103.764 912.057C103.979 911.585 104.069 911.065 104.024 910.548C104.024 908.085 102.408 906.854 99.0989 906.854C97.8015 906.769 96.5099 907.092 95.4051 907.778C94.9838 908.099 94.6502 908.521 94.435 909.005C94.2198 909.489 94.1299 910.02 94.1738 910.548C94.1286 911.065 94.2185 911.585 94.4343 912.057C94.6501 912.529 94.9845 912.937 95.4051 913.241C96.5749 913.917 97.9019 914.272 99.2528 914.272C100.604 914.272 101.931 913.917 103.1 913.241H102.793Z"
                  fill="#0094D4"/>
            <path d="M122.04 902.313C123.722 902.274 125.371 902.787 126.734 903.775C127.313 904.264 127.773 904.879 128.08 905.572C128.386 906.265 128.531 907.019 128.504 907.776C128.537 908.535 128.395 909.291 128.088 909.985C127.781 910.679 127.317 911.292 126.734 911.778C125.404 912.83 123.731 913.351 122.04 913.24H116.499V918.165H111.574V902.082L122.04 902.313ZM123.425 908.007C123.425 907.238 122.963 906.853 121.886 906.853H116.499V909.469H121.886C122.963 909.239 123.579 908.854 123.579 908.007H123.425Z"
                  fill="#0094D4"/>
            <path d="M152.97 918.392H148.122V909.465L144.275 918.392H139.504L135.733 909.542V918.392H131.27V902.309H137.811L142.274 912.928L146.737 902.309H153.355L152.97 918.392Z"
                  fill="#0094D4"/>
            <path d="M173.663 917.699V918.392H168.892L167.815 915.775H160.735L159.735 918.392H154.887V917.699L161.582 902.309H167.045L173.663 917.699ZM165.968 911.697L164.044 907.003L162.197 911.697H165.968Z"
                  fill="#0094D4"/>
            <path d="M172.895 906.772V902.309H189.132V906.772H183.514V918.392H178.589V906.772H172.895Z" fill="#0094D4"/>
            <path d="M196.145 902.309V911.62L203.302 902.309H208.227V918.392H203.379V909.157L196.222 918.392H191.297V902.309H196.145Z"
                  fill="#0094D4"/>
            <path d="M229.009 903.084L222.775 910.087L228.547 917.782V918.475H222.929L218.62 912.626H216.542V918.475H211.617V902.392H216.542V908.24H218.389L223.16 902.392H229.009V903.084Z"
                  fill="#0094D4"/>
            <path d="M248.999 917.699V918.392H244.228L243.151 915.775H236.071L235.071 918.392H230.223V917.699L236.918 902.309H242.381L248.999 917.699ZM241.304 911.697L239.38 907.003L237.533 911.697H241.304Z"
                  fill="#0094D4"/>
        </g>
    </g>
    <defs>
        <clipPath id="clip0_3579_79859">
            <rect width="1350" height="970" fill="white"/>
        </clipPath>
        <clipPath id="clip1_3579_79859">
            <path d="M0 765H1350V954.001C1350 962.837 1342.84 970.001 1334 970.001H16C7.16344 970.001 0 962.837 0 954.001V765Z"
                  fill="white"/>
        </clipPath>
        <clipPath id="clip2_3579_79859">
            <rect width="227.256" height="39.7483" fill="white" transform="translate(22.1836 846)"/>
        </clipPath>
    </defs>
</svg>
